<?xml version="1.0"?>
<svg xmlns="http://www.w3.org/2000/svg" xmlns:xlink="http://www.w3.org/1999/xlink" xmlns:svgjs="http://svgjs.com/svgjs" version="1.1" width="512" height="512" x="0" y="0" viewBox="0 0 64 64" style="enable-background:new 0 0 512 512" xml:space="preserve" class=""><g><path xmlns="http://www.w3.org/2000/svg" d="m32 8c-1.104 0-2 .896-2 2v39.892l-14.552-15.272c-.762-.798-2.027-.829-2.828-.068-.799.763-.83 2.028-.068 2.828l16.625 17.445c.758.758 1.76 1.175 2.823 1.175 1.062 0 2.063-.417 2.858-1.21l16.59-17.41c.762-.8.731-2.065-.068-2.828-.8-.762-2.063-.731-2.828.068l-14.552 15.341v-39.961c0-1.104-.896-2-2-2z" fill="#6b6b6b" data-original="#012e52" style=""/></g></svg>
